# xmcd CD database file
#
# Track frame offsets:
#	150
#	40759
#	56963
#	86898
#	108588
#	145540
#	172830
#	181919
#	224469
#	254489
#	262979
#	299273
#
# Disc length: 4466 seconds
#
# Revision: 0
# Processed by: cddbd v1.5.2PL0 Copyright (c) Steve Scherf et al.
# Submitted via: CDex 1.70beta2
#
DISCID=b111700c
DTITLE=Trio MES - Trio MES
DYEAR=2004
DGENRE=Jazz
TTITLE0=Gema
TTITLE1=Endovenosa
TTITLE2=Ed(y el)mundo
TTITLE3=Sectores
TTITLE4=Sir Ching
TTITLE5=Atención: no dañar
TTITLE6=El ladeado
TTITLE7=Follaje
TTITLE8=Eronett ronette
TTITLE9=El hombre alto ha regresado
TTITLE10=Fusiona todas las luces
TTITLE11=Hilos
EXTD=YEAR: 2004
EXTT0=
EXTT1=
EXTT2=
EXTT3=
EXTT4=
EXTT5=
EXTT6=
EXTT7=
EXTT8=
EXTT9=
EXTT10=
EXTT11=
PLAYORDER=
